<?xml version="1.0" encoding="utf-8"?>
<?xml-stylesheet type="text/xsl" href="rss1.xsl"?>
<rss version="2.0" xmlns:atom="http://www.w3.org/2005/Atom" xmlns:content="http://purl.org/rss/1.0/modules/content/" xmlns:dc="http://purl.org/dc/elements/1.1/" xmlns:media="http://search.yahoo.com/mrss/">
<channel>
 <title>Getty</title>
 <link>http://www.gettyimg.com/</link>
 <atom:link href="http://www.gettyimg.com/" rel="self" type="application/rss+xml" />

 
                <item>
                <title><![CDATA[【Cinema Center】MOVIE - Saturno contro (2007) [720p]]]></title>
                <link><![CDATA[https://sharemania.us/threads/saturno-contro-2007-720p.221243/]]></link>
                <description><![CDATA[<article>
<blockquote class="messageText SelectQuoteContainer ugc baseHtml">
<img src="https://br.web.img2.acsta.net/r_1920_1080/medias/nmedia/18/87/92/26/19984478.jpg" class="bbCodeImage LbImage" alt="[​IMG]" data-url="https://br.web.img2.acsta.net/r_1920_1080/medias/nmedia/18/87/92/26/19984478.jpg" style=""> <br>
<div class="bbCodeBlock bbCodeQuote">
<aside>
<blockquote class="quoteContainer"><div class="quote"><span style="font-family: 'Georgia'"><i>Um grupo de amigos que viveram a própria juventude nos anos 80 e 90, estão a beira dos quarenta e tiram as contas sobre o sentido de tal amizade, dos seus romances e de suas vidas. O tema da separação, seja na amizade que no amor e a impossibilidade de aceitá-la irá obrigá-los a se confrontar com os seus sentimentos, suas emoções e seus medos mais profundos. O que aconteceria se em vez de esconder, negar ou remover mudanças sentimentais ou existenciais, se começasse a não esconder mais nada, a desabafar tudo e a se confrontar coletivamente com os próprios desejos, segredos, cada um com sua própria vontade de novas relações e sentimentos? Como se podem superar todos os medos ligados às mudanças da própria vida? Como não se separar nunca, mesmo quando tudo ao teu redor pede por isso.</i></span></div><div class="quoteExpand">Click to expand...</div></blockquote>
</aside>
</div>Título no Brasil: Saturno em oposição<br>
• <b>Áudio: Italiano<br>
• Legendas: Português</b><br>
<b><br>
<img src="https://i.imgur.com/rupS8vR.jpg" class="bbCodeImage LbImage" alt="[​IMG]" data-url="https://i.imgur.com/rupS8vR.jpg" style=""> </b><br>
<div class="bbCodeBlock bbCodeVfcHH HiddenContent">
<div class="attribution type">Hidden Content:</div>
<blockquote>You must either reply or click 'Like' to see the hidden information contained here.</blockquote>
</div>
<div class="messageTextEndMarker">&nbsp;</div>
</blockquote>
</article>]]></description>
                <author><![CDATA[Giulya]]></author>
                </item>

                
                <item>
                <title><![CDATA[【PRORES SD】BEYONCE "Suga Mama" (Closed Captioned Line 21) [PCM24 ProRes 486i] **RE-TRANSFER**]]></title>
                <link><![CDATA[https://sharemania.us/threads/beyonce-suga-mama-closed-captioned-line-21-pcm24-prores-486i-re-transfer.221242/]]></link>
                <description><![CDATA[<article>
<blockquote class="messageText SelectQuoteContainer ugc baseHtml">
<div style="text-align: center"><span style="font-size: 18px"><span style="color: #0000ff"><b>BEYONCE "Suga Mama" (Closed Captioned Line 21) [PCM24 ProRes 486i] </b><br>
</span></span><br>
<span style="font-size: 22px"><span style="color: #ff0000"><span style="text-decoration: underline"><i>**RE-TRANSFER**</i></span></span></span><br>
<span style="font-size: 18px"><span style="color: #0000ff"><br>
<br>
<b><img src="https://i.imgur.com/TN7hzKH.jpg" class="bbCodeImage LbImage" alt="[​IMG]" data-url="https://i.imgur.com/TN7hzKH.jpg" style=""></b><br>
<br>
<b><img src="https://i.imgur.com/AL6JvLG.jpg" class="bbCodeImage LbImage" alt="[​IMG]" data-url="https://i.imgur.com/AL6JvLG.jpg" style=""></b><br>
<br>
<b><img src="https://i.imgur.com/MONkDtC.png" class="bbCodeImage LbImage" alt="[​IMG]" data-url="https://i.imgur.com/MONkDtC.png" style=""></b><br>
</span></span><br>
<br>
<span style="font-size: 18px"><span style="color: #0000ff"><img src="https://i.imgur.com/AIBLwKA.jpg" class="bbCodeImage LbImage" alt="[​IMG]" data-url="https://i.imgur.com/AIBLwKA.jpg" style=""><br>
</span></span><br>
<br>
<span style="color: #0000ff"><span style="font-size: 15px"><br>
<div class="ToggleTriggerAnchor bbCodeSpoilerContainer">
<button type="button" class="button bbCodeSpoilerButton ToggleTrigger Tooltip JsOnly" data-target="> .SpoilerTarget"><span>Spoiler</span></button>
<div class="SpoilerTarget bbCodeSpoilerText">General<br>
Complete name : BEYONCE "Suga Mama" (cc).mov<br>
Format : QuickTime<br>
Format/Info : Original Apple specifications<br>
File size : 1.72 GiB<br>
Duration : 3mn 53s<br>
Overall bit rate mode : Variable<br>
Overall bit rate : 63.2 Mbps<br>
Encoded date : UTC 2022-05-10 15:37:45<br>
Tagged date : UTC 2022-05-10 15:41:39<br>
Writing library : Apple QuickTime<br>
Media/UUID : 00A62BB6-BBD6-4EFA-93C4-F8CFCF4272ED<br>
<br>
Video<br>
ID : 1<br>
Format : ProRes<br>
Format version : Version 0<br>
Format profile : High<br>
Codec ID : apch<br>
Duration : 3mn 53s<br>
Source duration : 3mn 53s<br>
Source_Duration_FirstFrame : 71ms<br>
Bit rate mode : Variable<br>
Bit rate : 60.9 Mbps<br>
Width : 720 pixels<br>
Height : 486 pixels<br>
Display aspect ratio : 3:2<br>
Frame rate mode : Constant<br>
Frame rate : 29.970 fps<br>
Standard : NTSC<br>
Color space : YUV<br>
Chroma subsampling : 4:2:2<br>
Scan type : Interlaced<br>
Scan order : Top Field First<br>
Stored scan order : Bottom Field First<br>
Bits/(Pixel*Frame) : 5.807<br>
Stream size : 1.66 GiB (96%)<br>
Source stream size : 1.66 GiB (96%)<br>
Writing library : AJA Kona Hardware<br>
Language : English<br>
Encoded date : UTC 2022-05-10 15:41:39<br>
Tagged date : UTC 2022-05-10 15:41:39<br>
Color primaries : BT.601 NTSC<br>
Matrix coefficients : BT.601<br>
<br>
Audio<br>
ID : 5<br>
Format : PCM<br>
Format settings, Endianness : Little<br>
Format settings, Sign : Unsigned<br>
Codec ID : in24<br>
Duration : 3mn 53s<br>
Source duration : 3mn 53s<br>
Bit rate mode : Constant<br>
Bit rate : 2 304 Kbps<br>
Channel(s) : 2 channels<br>
Channel positions : Front: L R<br>
Sampling rate : 48.0 KHz<br>
Bit depth : 24 bits<br>
Stream size : 64.2 MiB (4%)<br>
Source stream size : 64.3 MiB (4%)<br>
Language : English<br>
Encoded date : UTC 2022-05-10 15:41:39<br>
Tagged date : UTC 2022-05-10 15:41:39<br>
<br>
Other<br>
ID : 6<br>
Type : Time code<br>
Format : QuickTime TC<br>
Duration : 3mn 53s<br>
Time code of first frame : 00:07:56;19<br>
Time code settings : Striped<br>
Title : BEYONCE "Suga Mama" (cc)<br>
Language : English<br>
Encoded date : UTC 2022-05-10 15:41:39<br>
Tagged date : UTC 2022-05-10 15:41:39</div>
</div><br>
<br>
</span>
<div class="bbCodeBlock bbCodeVfcHH HiddenContent">
<div class="attribution type">Hidden Content:</div>
<blockquote>You must reply before you can see the hidden data contained here.</blockquote>
</div></span><br>
​</div>
<div class="messageTextEndMarker">&nbsp;</div>
</blockquote>
</article>]]></description>
                <author><![CDATA[dgol22]]></author>
                </item>

                
                <item>
                <title><![CDATA[【Requests】[REQ VID] - Bette Midler - One Night Only]]></title>
                <link><![CDATA[https://sharemania.us/threads/bette-midler-one-night-only.221240/]]></link>
                <description><![CDATA[<article>
<blockquote class="messageText SelectQuoteContainer ugc baseHtml">
Hi all, I'm searching for Bette Midler's One Night Only special in HD. Thanks in advance!
<div class="messageTextEndMarker">&nbsp;</div>
</blockquote>
</article>]]></description>
                <author><![CDATA[garry19877]]></author>
                </item>

                
                <item>
                <title><![CDATA[【PRORES SD】BEYONCE "Freakum Dress" (Closed Captioned Line 21) [PCM24 ProRes 486i]]]></title>
                <link><![CDATA[https://sharemania.us/threads/beyonce-freakum-dress-closed-captioned-line-21-pcm24-prores-486i.221244/]]></link>
                <description><![CDATA[<article>
<blockquote class="messageText SelectQuoteContainer ugc baseHtml">
<div style="text-align: center"><span style="font-size: 22px"><span style="color: #0000ff">BEYONCE "Freakum Dress" (Closed Captioned Line 21) [PCM24 ProRes 486i]</span></span><br>
<span style="color: #0000ff"><br>
<br>
<br>
<img src="https://i.imgur.com/UiAfreV.jpg" class="bbCodeImage LbImage" alt="[​IMG]" data-url="https://i.imgur.com/UiAfreV.jpg" style=""><br>
</span>​</div><img src="https://i.imgur.com/5fiKDTh.png" class="bbCodeImage LbImage" alt="[​IMG]" data-url="https://i.imgur.com/5fiKDTh.png" style=""><br>
<div style="text-align: center"><span style="color: #0000ff"><br>
<img src="https://i.imgur.com/tABOL2X.jpg" class="bbCodeImage LbImage" alt="[​IMG]" data-url="https://i.imgur.com/tABOL2X.jpg" style=""><br>
<br>
<br>
<br>
<div class="ToggleTriggerAnchor bbCodeSpoilerContainer">
<button type="button" class="button bbCodeSpoilerButton ToggleTrigger Tooltip JsOnly" data-target="> .SpoilerTarget"><span>Spoiler</span></button>
<div class="SpoilerTarget bbCodeSpoilerText">General<br>
Complete name : BEYONCE "Freakum Dress" (cc).mov<br>
Format : QuickTime<br>
Format/Info : Original Apple specifications<br>
File size : 1.62 GiB<br>
Duration : 3mn 34s<br>
Overall bit rate mode : Variable<br>
Overall bit rate : 65.1 Mbps<br>
Encoded date : UTC 2022-05-10 15:44:31<br>
Tagged date : UTC 2022-05-10 15:48:06<br>
Writing library : Apple QuickTime<br>
Media/UUID : 8242711C-9137-4505-82F9-809DB8F7991F<br>
<br>
Video<br>
ID : 1<br>
Format : ProRes<br>
Format version : Version 0<br>
Format profile : High<br>
Codec ID : apch<br>
Duration : 3mn 34s<br>
Source duration : 3mn 34s<br>
Source_Duration_FirstFrame : 100ms<br>
Bit rate mode : Variable<br>
Bit rate : 62.7 Mbps<br>
Width : 720 pixels<br>
Height : 486 pixels<br>
Display aspect ratio : 3:2<br>
Frame rate mode : Constant<br>
Frame rate : 29.970 fps<br>
Standard : NTSC<br>
Color space : YUV<br>
Chroma subsampling : 4:2:2<br>
Scan type : Interlaced<br>
Scan order : Top Field First<br>
Stored scan order : Bottom Field First<br>
Bits/(Pixel*Frame) : 5.979<br>
Stream size : 1.56 GiB (96%)<br>
Source stream size : 1.56 GiB (96%)<br>
Writing library : AJA Kona Hardware<br>
Language : English<br>
Encoded date : UTC 2022-05-10 15:48:06<br>
Tagged date : UTC 2022-05-10 15:48:06<br>
Color primaries : BT.601 NTSC<br>
Matrix coefficients : BT.601<br>
<br>
Audio<br>
ID : 5<br>
Format : PCM<br>
Format settings, Endianness : Little<br>
Format settings, Sign : Unsigned<br>
Codec ID : in24<br>
Duration : 3mn 34s<br>
Source duration : 3mn 34s<br>
Bit rate mode : Constant<br>
Bit rate : 2 304 Kbps<br>
Channel(s) : 2 channels<br>
Channel positions : Front: L R<br>
Sampling rate : 48.0 KHz<br>
Bit depth : 24 bits<br>
Stream size : 58.8 MiB (4%)<br>
Source stream size : 58.9 MiB (4%)<br>
Language : English<br>
Encoded date : UTC 2022-05-10 15:48:06<br>
Tagged date : UTC 2022-05-10 15:48:06<br>
<br>
Text<br>
ID : 4-CC1<br>
Format : EIA-608<br>
Muxing mode : Final Cut<br>
Codec ID : c608<br>
Duration : 3mn 34s<br>
Source duration : 3mn 34s<br>
Source_Duration_FirstFrame : 100ms<br>
Bit rate mode : Constant<br>
Stream size : 0.00 Byte (0%)<br>
Source stream size : 125 KiB (0%)<br>
Language : English<br>
Encoded date : UTC 2022-05-10 15:48:06<br>
Tagged date : UTC 2022-05-10 15:48:06<br>
Source_Delay : 710944<br>
Source_Delay_Source : Container<br>
<br>
Other<br>
ID : 6<br>
Type : Time code<br>
Format : QuickTime TC<br>
Duration : 3mn 34s<br>
Time code of first frame : 00:11:51;00<br>
Time code settings : Striped<br>
Title : BEYONCE "Freakum Dress" (cc)<br>
Language : English<br>
Encoded date : UTC 2022-05-10 15:48:06<br>
Tagged date : UTC 2022-05-10 15:48:06</div>
</div><br>
<div class="bbCodeBlock bbCodeVfcHH HiddenContent">
<div class="attribution type">Hidden Content:</div>
<blockquote>You must reply before you can see the hidden data contained here.</blockquote>
</div></span>​</div>
<div class="messageTextEndMarker">&nbsp;</div>
</blockquote>
</article>]]></description>
                <author><![CDATA[dgol22]]></author>
                </item>

                
                <item>
                <title><![CDATA[【Requests】[REQ VID] - Bette Midler - One Night Only]]></title>
                <link><![CDATA[https://sharemania.us/threads/bette-midler-one-night-only.221241/]]></link>
                <description><![CDATA[<article>
<blockquote class="messageText SelectQuoteContainer ugc baseHtml">
Hi all, I'm searching for Bette Midler's One Night Only special in HD. Thanks in advance!
<div class="messageTextEndMarker">&nbsp;</div>
</blockquote>
</article>]]></description>
                <author><![CDATA[garry19877]]></author>
                </item>

                
                <item>
                <title><![CDATA[【Requests】[REQ AUD] - Liz Phair - Ho Ho Ho [Amazon MP3]]]></title>
                <link><![CDATA[https://sharemania.us/threads/liz-phair-ho-ho-ho-amazon-mp3.221245/]]></link>
                <description><![CDATA[<article>
<blockquote class="messageText SelectQuoteContainer ugc baseHtml">
<a href="https://www.amazon.com/music/player/albums/B00PGEOHZ4" target="_blank" class="externalLink" rel="nofollow">https://www.amazon.com/music/player/albums/B00PGEOHZ4</a><br>
<br>
Anyone have this or can rip it from Amazon Music?
<div class="messageTextEndMarker">&nbsp;</div>
</blockquote>
</article>]]></description>
                <author><![CDATA[blowyourmind]]></author>
                </item>

                </channel></rss>